# xmcd
# 
# Track frame offsets:
#     165
#     13007
#     27935
#     40802
#     50570
#     67160
#     81687
#     91075
#     101690
#     112070
#     123767
#     136940
#     149792
#     163187
#     175550
#     188255
#     196730
#     206570
#     219242
#     233927
# 
# Disc length: 3288
# 
# Revision: 4
# Processed by: cddbd v1.5.2PL0 Copyright (c) Steve Scherf et al.
# Submitted via: BonkEnc v1.0
# 
DISCID=1b0cd614
DTITLE=Various Artist - Country Stars on CD #3
DYEAR=0
DGENRE=
TTITLE0=Carl Smith - Kisses Don't Lie
TTITLE1=Mike Lungsford - Honey Hungry
TTITLE2=Carl and Pearl Butler - Don't Let Me Cross Over
TTITLE3=Johnny Lee - Red Sails In The Sunset
TTITLE4=Jimmie Davis - You Are My Sunshine
TTITLE5=Carl Smith - I Just Loved Her For The Last Time
TTITLE6=George Jones - The Race Is On
TTITLE7=Johnny Cash - Train Of Love
TTITLE8=Ben Colder - Hello Walls #2
TTITLE9=Jack Greene - All The Time
TTITLE10=Red Sovine - It'll Come Back
TTITLE11=Billy Walker - Cross The Brazos At Wacos
TTITLE12=David Houston - Barroom Champagne
TTITLE13=Dottie West - Crazy
TTITLE14=Del Reeves - Girl On The Billboard
TTITLE15=Jimmie Wakely - Slipping Around
TTITLE16=Jean Shepard - Many Happy Hangovers To You
TTITLE17=Claude King - Wolverton Mountain
TTITLE18=Red Simpson - I'm A Truck
TTITLE19=Mike Lungsford - I've Never Cheated On You
EXTD=
EXTT0=
EXTT1=
EXTT2=
EXTT3=
EXTT4=
EXTT5=
EXTT6=
EXTT7=
EXTT8=
EXTT9=
EXTT10=
EXTT11=
EXTT12=
EXTT13=
EXTT14=
EXTT15=
EXTT16=
EXTT17=
EXTT18=
EXTT19=
PLAYORDER=
